<mxfile host="Electron" modified="2024-07-14T12:27:03.287Z" agent="Mozilla/5.0 (Windows NT 10.0; Win64; x64) AppleWebKit/537.36 (KHTML, like Gecko) draw.io/22.0.3 Chrome/114.0.5735.289 Electron/25.8.4 Safari/537.36" etag="ExgW8y4kK6Y6OovTQjgm" version="22.0.3" type="device">
  <diagram name="整体设计" id="Ht92Ma1IatEzV1gATZ2Z">
    <mxGraphModel dx="2810" dy="1748" grid="1" gridSize="10" guides="1" tooltips="1" connect="1" arrows="1" fold="1" page="0" pageScale="1" pageWidth="827" pageHeight="1169" math="0" shadow="0">
      <root>
        <mxCell id="0" />
        <mxCell id="1" parent="0" />
        <mxCell id="KbZq7SXbI6fDJCkKXcor-2" value="Provider" style="rounded=0;whiteSpace=wrap;html=1;verticalAlign=middle;align=center;fontStyle=1;fontSize=15;strokeWidth=1;fillColor=#F2FCDA;strokeColor=#6c8ebf;" vertex="1" parent="1">
          <mxGeometry x="210" y="-10" width="730" height="70" as="geometry" />
        </mxCell>
        <mxCell id="KbZq7SXbI6fDJCkKXcor-1" value="Consumer" style="rounded=0;whiteSpace=wrap;html=1;verticalAlign=middle;align=center;fontStyle=1;fontSize=15;strokeWidth=1;fillColor=#CADFFE;strokeColor=#6c8ebf;" vertex="1" parent="1">
          <mxGeometry x="-520" y="-10" width="730" height="70" as="geometry" />
        </mxCell>
        <mxCell id="gIRKYJ1xP_HY7FMiImQd-62" value="" style="rounded=0;whiteSpace=wrap;html=1;verticalAlign=top;align=left;fontStyle=1;fontSize=15;strokeWidth=1;fillColor=#F2FCDA;strokeColor=#6c8ebf;" parent="1" vertex="1">
          <mxGeometry x="210" y="950" width="570" height="250" as="geometry" />
        </mxCell>
        <mxCell id="gIRKYJ1xP_HY7FMiImQd-61" value="" style="rounded=0;whiteSpace=wrap;html=1;verticalAlign=top;align=left;fontStyle=1;fontSize=15;strokeWidth=1;fillColor=#F2FCDA;strokeColor=#6c8ebf;" parent="1" vertex="1">
          <mxGeometry x="210" y="430" width="570" height="220" as="geometry" />
        </mxCell>
        <mxCell id="gIRKYJ1xP_HY7FMiImQd-20" value="" style="rounded=0;whiteSpace=wrap;html=1;verticalAlign=top;align=left;fontStyle=1;fontSize=15;strokeWidth=1;fillColor=#F2FCDA;strokeColor=#6c8ebf;" parent="1" vertex="1">
          <mxGeometry x="210" y="60" width="570" height="150" as="geometry" />
        </mxCell>
        <mxCell id="gIRKYJ1xP_HY7FMiImQd-58" value="" style="rounded=0;whiteSpace=wrap;html=1;verticalAlign=top;align=left;fontStyle=1;fontSize=15;strokeWidth=1;fillColor=#F2FCDA;strokeColor=#6c8ebf;" parent="1" vertex="1">
          <mxGeometry x="210" y="800" width="570" height="150" as="geometry" />
        </mxCell>
        <mxCell id="gIRKYJ1xP_HY7FMiImQd-59" value="" style="rounded=0;whiteSpace=wrap;html=1;verticalAlign=top;align=left;fontStyle=1;fontSize=15;strokeWidth=1;fillColor=#F2FCDA;strokeColor=#6c8ebf;" parent="1" vertex="1">
          <mxGeometry x="210" y="650" width="570" height="150" as="geometry" />
        </mxCell>
        <mxCell id="gIRKYJ1xP_HY7FMiImQd-60" value="" style="rounded=0;whiteSpace=wrap;html=1;verticalAlign=top;align=left;fontStyle=1;fontSize=15;strokeWidth=1;fillColor=#F2FCDA;strokeColor=#6c8ebf;" parent="1" vertex="1">
          <mxGeometry x="210" y="210" width="570" height="220" as="geometry" />
        </mxCell>
        <mxCell id="gIRKYJ1xP_HY7FMiImQd-57" value="" style="rounded=0;whiteSpace=wrap;html=1;verticalAlign=top;align=left;fontStyle=1;fontSize=15;strokeWidth=1;fillColor=#F2FCDA;strokeColor=#6c8ebf;" parent="1" vertex="1">
          <mxGeometry x="210" y="1500" width="570" height="150" as="geometry" />
        </mxCell>
        <mxCell id="gIRKYJ1xP_HY7FMiImQd-47" value="" style="rounded=0;whiteSpace=wrap;html=1;verticalAlign=top;align=left;fontStyle=1;fontSize=15;strokeWidth=1;fillColor=#F2FCDA;strokeColor=#6c8ebf;" parent="1" vertex="1">
          <mxGeometry x="210" y="1200" width="570" height="150" as="geometry" />
        </mxCell>
        <mxCell id="gIRKYJ1xP_HY7FMiImQd-22" value="" style="rounded=0;whiteSpace=wrap;html=1;verticalAlign=top;align=left;fontStyle=1;fontSize=15;strokeWidth=1;fillColor=#F2FCDA;strokeColor=#6c8ebf;" parent="1" vertex="1">
          <mxGeometry x="210" y="1350" width="570" height="150" as="geometry" />
        </mxCell>
        <mxCell id="Lk-VcoclUvMqdNgMOQ5e-87" value="Service" style="rounded=0;whiteSpace=wrap;html=1;verticalAlign=top;align=left;fontStyle=1;fontSize=15;strokeWidth=1;fillColor=#CADFFE;strokeColor=#6c8ebf;" parent="1" vertex="1">
          <mxGeometry x="-360" y="60" width="570" height="150" as="geometry" />
        </mxCell>
        <mxCell id="Lk-VcoclUvMqdNgMOQ5e-96" value="Serialize" style="rounded=0;whiteSpace=wrap;html=1;align=left;fontStyle=1;verticalAlign=top;fontSize=15;fillColor=#CADFFE;strokeColor=#6c8ebf;" parent="1" vertex="1">
          <mxGeometry x="-360" y="1500" width="570" height="150" as="geometry" />
        </mxCell>
        <mxCell id="Lk-VcoclUvMqdNgMOQ5e-95" value="Transport" style="rounded=0;whiteSpace=wrap;html=1;align=left;fontStyle=1;verticalAlign=top;fontSize=15;fillColor=#CADFFE;strokeColor=#6c8ebf;" parent="1" vertex="1">
          <mxGeometry x="-360" y="1350" width="570" height="150" as="geometry" />
        </mxCell>
        <mxCell id="Lk-VcoclUvMqdNgMOQ5e-94" value="Exchange" style="rounded=0;whiteSpace=wrap;html=1;align=left;fontStyle=1;verticalAlign=top;fontSize=15;fillColor=#CADFFE;strokeColor=#6c8ebf;" parent="1" vertex="1">
          <mxGeometry x="-360" y="1200" width="570" height="150" as="geometry" />
        </mxCell>
        <mxCell id="Lk-VcoclUvMqdNgMOQ5e-92" value="Monitor" style="rounded=0;whiteSpace=wrap;html=1;align=left;fontStyle=1;verticalAlign=top;fontSize=15;fillColor=#CADFFE;strokeColor=#6c8ebf;" parent="1" vertex="1">
          <mxGeometry x="-360" y="800" width="570" height="150" as="geometry" />
        </mxCell>
        <mxCell id="Lk-VcoclUvMqdNgMOQ5e-93" value="Protocol" style="rounded=0;whiteSpace=wrap;html=1;align=left;fontStyle=1;verticalAlign=top;fontSize=15;perimeterSpacing=0;fillColor=#CADFFE;strokeColor=#6c8ebf;" parent="1" vertex="1">
          <mxGeometry x="-360" y="950" width="570" height="250" as="geometry" />
        </mxCell>
        <mxCell id="Lk-VcoclUvMqdNgMOQ5e-91" value="Cluster" style="rounded=0;whiteSpace=wrap;html=1;align=left;fontStyle=1;verticalAlign=top;fontSize=15;fillColor=#CADFFE;strokeColor=#6c8ebf;" parent="1" vertex="1">
          <mxGeometry x="-360" y="650" width="570" height="150" as="geometry" />
        </mxCell>
        <mxCell id="Lk-VcoclUvMqdNgMOQ5e-90" value="Registry" style="rounded=0;whiteSpace=wrap;html=1;align=left;fontStyle=1;verticalAlign=top;fontSize=15;fillColor=#CADFFE;strokeColor=#6c8ebf;" parent="1" vertex="1">
          <mxGeometry x="-360" y="430" width="570" height="220" as="geometry" />
        </mxCell>
        <mxCell id="Lk-VcoclUvMqdNgMOQ5e-89" value="Proxy" style="rounded=0;whiteSpace=wrap;html=1;align=left;fontStyle=1;verticalAlign=top;fontSize=15;fillColor=#CADFFE;strokeColor=#6c8ebf;" parent="1" vertex="1">
          <mxGeometry x="-360" y="210" width="570" height="220" as="geometry" />
        </mxCell>
        <mxCell id="Lk-VcoclUvMqdNgMOQ5e-9" style="edgeStyle=orthogonalEdgeStyle;rounded=0;orthogonalLoop=1;jettySize=auto;html=1;entryX=0.5;entryY=0;entryDx=0;entryDy=0;strokeColor=#CD594E;strokeWidth=3;" parent="1" source="Lk-VcoclUvMqdNgMOQ5e-2" target="Lk-VcoclUvMqdNgMOQ5e-3" edge="1">
          <mxGeometry relative="1" as="geometry" />
        </mxCell>
        <mxCell id="Lk-VcoclUvMqdNgMOQ5e-2" value="Proxy" style="rounded=1;whiteSpace=wrap;html=1;fillColor=#4591D5;" parent="1" vertex="1">
          <mxGeometry x="-280" y="340" width="120" height="60" as="geometry" />
        </mxCell>
        <mxCell id="Lk-VcoclUvMqdNgMOQ5e-10" style="edgeStyle=orthogonalEdgeStyle;rounded=0;orthogonalLoop=1;jettySize=auto;html=1;entryX=0.5;entryY=0;entryDx=0;entryDy=0;strokeColor=#CD594E;strokeWidth=3;" parent="1" source="Lk-VcoclUvMqdNgMOQ5e-3" target="Lk-VcoclUvMqdNgMOQ5e-4" edge="1">
          <mxGeometry relative="1" as="geometry" />
        </mxCell>
        <mxCell id="gIRKYJ1xP_HY7FMiImQd-3" style="edgeStyle=orthogonalEdgeStyle;rounded=0;orthogonalLoop=1;jettySize=auto;html=1;dashed=1;strokeWidth=3;exitX=0;exitY=0.5;exitDx=0;exitDy=0;" parent="1" source="gIRKYJ1xP_HY7FMiImQd-2" target="Lk-VcoclUvMqdNgMOQ5e-3" edge="1">
          <mxGeometry relative="1" as="geometry" />
        </mxCell>
        <mxCell id="Lk-VcoclUvMqdNgMOQ5e-3" value="LoadBalance" style="rounded=1;whiteSpace=wrap;html=1;fillColor=#A5C551;" parent="1" vertex="1">
          <mxGeometry x="-280" y="695" width="120" height="60" as="geometry" />
        </mxCell>
        <mxCell id="Lk-VcoclUvMqdNgMOQ5e-11" style="edgeStyle=orthogonalEdgeStyle;rounded=0;orthogonalLoop=1;jettySize=auto;html=1;entryX=0.5;entryY=0;entryDx=0;entryDy=0;strokeColor=#CD594E;strokeWidth=3;" parent="1" source="Lk-VcoclUvMqdNgMOQ5e-4" target="gIRKYJ1xP_HY7FMiImQd-5" edge="1">
          <mxGeometry relative="1" as="geometry" />
        </mxCell>
        <mxCell id="Lk-VcoclUvMqdNgMOQ5e-4" value="Filter" style="rounded=1;whiteSpace=wrap;html=1;fillColor=#A5C551;" parent="1" vertex="1">
          <mxGeometry x="-280" y="995" width="120" height="60" as="geometry" />
        </mxCell>
        <mxCell id="Lk-VcoclUvMqdNgMOQ5e-12" style="edgeStyle=orthogonalEdgeStyle;rounded=0;orthogonalLoop=1;jettySize=auto;html=1;entryX=0.5;entryY=0;entryDx=0;entryDy=0;strokeColor=#CD594E;exitX=0.5;exitY=1;exitDx=0;exitDy=0;strokeWidth=3;" parent="1" source="gIRKYJ1xP_HY7FMiImQd-5" target="Lk-VcoclUvMqdNgMOQ5e-6" edge="1">
          <mxGeometry relative="1" as="geometry">
            <Array as="points">
              <mxPoint x="-220" y="1170" />
              <mxPoint x="-220" y="1170" />
            </Array>
          </mxGeometry>
        </mxCell>
        <mxCell id="gIRKYJ1xP_HY7FMiImQd-6" value="" style="edgeStyle=orthogonalEdgeStyle;rounded=0;orthogonalLoop=1;jettySize=auto;html=1;dashed=1;strokeWidth=3;entryX=1;entryY=0.25;entryDx=0;entryDy=0;exitX=0.5;exitY=1;exitDx=0;exitDy=0;" parent="1" source="Lk-VcoclUvMqdNgMOQ5e-5" target="gIRKYJ1xP_HY7FMiImQd-5" edge="1">
          <mxGeometry relative="1" as="geometry" />
        </mxCell>
        <mxCell id="Lk-VcoclUvMqdNgMOQ5e-5" value="Invoker" style="rounded=1;whiteSpace=wrap;html=1;fillColor=#A5C551;" parent="1" vertex="1">
          <mxGeometry x="-80" y="995" width="120" height="60" as="geometry" />
        </mxCell>
        <mxCell id="Lk-VcoclUvMqdNgMOQ5e-13" style="edgeStyle=orthogonalEdgeStyle;rounded=0;orthogonalLoop=1;jettySize=auto;html=1;entryX=0.5;entryY=0;entryDx=0;entryDy=0;strokeColor=#CD594E;strokeWidth=3;" parent="1" source="Lk-VcoclUvMqdNgMOQ5e-6" target="Lk-VcoclUvMqdNgMOQ5e-7" edge="1">
          <mxGeometry relative="1" as="geometry" />
        </mxCell>
        <mxCell id="Lk-VcoclUvMqdNgMOQ5e-6" value="ExchangeClient" style="rounded=1;whiteSpace=wrap;html=1;fillColor=#A5C551;" parent="1" vertex="1">
          <mxGeometry x="-280" y="1245" width="120" height="60" as="geometry" />
        </mxCell>
        <mxCell id="gIRKYJ1xP_HY7FMiImQd-17" style="edgeStyle=orthogonalEdgeStyle;rounded=0;orthogonalLoop=1;jettySize=auto;html=1;entryX=0.5;entryY=0;entryDx=0;entryDy=0;strokeWidth=3;strokeColor=#CD594E;" parent="1" source="Lk-VcoclUvMqdNgMOQ5e-7" target="Lk-VcoclUvMqdNgMOQ5e-104" edge="1">
          <mxGeometry relative="1" as="geometry">
            <Array as="points">
              <mxPoint x="-220" y="1490" />
              <mxPoint x="-220" y="1490" />
            </Array>
          </mxGeometry>
        </mxCell>
        <mxCell id="Lk-VcoclUvMqdNgMOQ5e-7" value="Client" style="rounded=1;whiteSpace=wrap;html=1;fillColor=#A5C551;" parent="1" vertex="1">
          <mxGeometry x="-280" y="1395" width="120" height="60" as="geometry" />
        </mxCell>
        <mxCell id="Lk-VcoclUvMqdNgMOQ5e-88" style="edgeStyle=orthogonalEdgeStyle;rounded=0;orthogonalLoop=1;jettySize=auto;html=1;entryX=0.5;entryY=0;entryDx=0;entryDy=0;labelBorderColor=none;strokeColor=#CD594E;strokeWidth=3;exitX=0.5;exitY=1;exitDx=0;exitDy=28;exitPerimeter=0;" parent="1" source="gIRKYJ1xP_HY7FMiImQd-64" target="Lk-VcoclUvMqdNgMOQ5e-2" edge="1">
          <mxGeometry relative="1" as="geometry">
            <mxPoint x="-220" y="20" as="sourcePoint" />
          </mxGeometry>
        </mxCell>
        <mxCell id="Lk-VcoclUvMqdNgMOQ5e-86" value="Interface" style="rounded=1;whiteSpace=wrap;html=1;fillColor=#A5C551;" parent="1" vertex="1">
          <mxGeometry x="150" y="105" width="120" height="60" as="geometry" />
        </mxCell>
        <mxCell id="Lk-VcoclUvMqdNgMOQ5e-104" value="ObjectOutput" style="rounded=1;whiteSpace=wrap;html=1;fillColor=#A5C551;" parent="1" vertex="1">
          <mxGeometry x="-280" y="1545" width="120" height="60" as="geometry" />
        </mxCell>
        <mxCell id="Lk-VcoclUvMqdNgMOQ5e-106" value="ReferenceConfig" style="rounded=0;whiteSpace=wrap;html=1;verticalAlign=middle;align=center;fontStyle=1;fontSize=15;horizontal=0;fillColor=#CADFFE;strokeColor=#6C8EBF;" parent="1" vertex="1">
          <mxGeometry x="-520" y="60" width="160" height="1590" as="geometry" />
        </mxCell>
        <mxCell id="Lk-VcoclUvMqdNgMOQ5e-108" value="NotifyListener" style="rounded=1;whiteSpace=wrap;html=1;fillColor=#A5C551;" parent="1" vertex="1">
          <mxGeometry x="-80" y="560" width="120" height="60" as="geometry" />
        </mxCell>
        <mxCell id="Lk-VcoclUvMqdNgMOQ5e-112" style="edgeStyle=orthogonalEdgeStyle;rounded=0;orthogonalLoop=1;jettySize=auto;html=1;entryX=1;entryY=0.5;entryDx=0;entryDy=0;dashed=1;strokeWidth=3;" parent="1" source="Lk-VcoclUvMqdNgMOQ5e-110" target="Lk-VcoclUvMqdNgMOQ5e-108" edge="1">
          <mxGeometry relative="1" as="geometry" />
        </mxCell>
        <mxCell id="Lk-VcoclUvMqdNgMOQ5e-110" value="Registry" style="rounded=1;whiteSpace=wrap;html=1;fillColor=#A5C551;" parent="1" vertex="1">
          <mxGeometry x="150" y="560" width="120" height="60" as="geometry" />
        </mxCell>
        <mxCell id="Lk-VcoclUvMqdNgMOQ5e-115" value="" style="edgeStyle=orthogonalEdgeStyle;rounded=0;orthogonalLoop=1;jettySize=auto;html=1;dashed=1;strokeWidth=3;" parent="1" source="Lk-VcoclUvMqdNgMOQ5e-114" target="Lk-VcoclUvMqdNgMOQ5e-110" edge="1">
          <mxGeometry relative="1" as="geometry" />
        </mxCell>
        <mxCell id="Lk-VcoclUvMqdNgMOQ5e-114" value="RegistryFactory" style="rounded=1;whiteSpace=wrap;html=1;fillColor=#A5C551;" parent="1" vertex="1">
          <mxGeometry x="150" y="460" width="120" height="60" as="geometry" />
        </mxCell>
        <mxCell id="gIRKYJ1xP_HY7FMiImQd-1" value="ProxyFactory" style="rounded=1;whiteSpace=wrap;html=1;fillColor=#A5C551;" parent="1" vertex="1">
          <mxGeometry x="140" y="340" width="120" height="60" as="geometry" />
        </mxCell>
        <mxCell id="gIRKYJ1xP_HY7FMiImQd-2" value="Invoker" style="rounded=1;whiteSpace=wrap;html=1;fillColor=#A5C551;" parent="1" vertex="1">
          <mxGeometry x="-80" y="695" width="120" height="60" as="geometry" />
        </mxCell>
        <mxCell id="gIRKYJ1xP_HY7FMiImQd-4" value="Monitor" style="rounded=1;whiteSpace=wrap;html=1;fillColor=#A5C551;" parent="1" vertex="1">
          <mxGeometry x="150" y="845" width="120" height="60" as="geometry" />
        </mxCell>
        <mxCell id="gIRKYJ1xP_HY7FMiImQd-5" value="DubboInvoker" style="rounded=1;whiteSpace=wrap;html=1;fillColor=#4591D5;" parent="1" vertex="1">
          <mxGeometry x="-280" y="1100" width="120" height="60" as="geometry" />
        </mxCell>
        <mxCell id="gIRKYJ1xP_HY7FMiImQd-10" value="" style="edgeStyle=orthogonalEdgeStyle;rounded=0;orthogonalLoop=1;jettySize=auto;html=1;dashed=1;strokeWidth=3;" parent="1" source="gIRKYJ1xP_HY7FMiImQd-7" target="gIRKYJ1xP_HY7FMiImQd-8" edge="1">
          <mxGeometry relative="1" as="geometry" />
        </mxCell>
        <mxCell id="gIRKYJ1xP_HY7FMiImQd-7" value="Protocol" style="rounded=1;whiteSpace=wrap;html=1;fillColor=#A5C551;" parent="1" vertex="1">
          <mxGeometry x="150" y="995" width="120" height="60" as="geometry" />
        </mxCell>
        <mxCell id="gIRKYJ1xP_HY7FMiImQd-8" value="DubboProtocol" style="rounded=1;whiteSpace=wrap;html=1;fillColor=#4591D5;" parent="1" vertex="1">
          <mxGeometry x="150" y="1100" width="120" height="60" as="geometry" />
        </mxCell>
        <mxCell id="gIRKYJ1xP_HY7FMiImQd-12" style="edgeStyle=orthogonalEdgeStyle;rounded=0;orthogonalLoop=1;jettySize=auto;html=1;entryX=1;entryY=0.5;entryDx=0;entryDy=0;dashed=1;strokeWidth=3;" parent="1" source="gIRKYJ1xP_HY7FMiImQd-11" target="Lk-VcoclUvMqdNgMOQ5e-6" edge="1">
          <mxGeometry relative="1" as="geometry" />
        </mxCell>
        <mxCell id="gIRKYJ1xP_HY7FMiImQd-11" value="Exchanger" style="rounded=1;whiteSpace=wrap;html=1;fillColor=#A5C551;" parent="1" vertex="1">
          <mxGeometry x="150" y="1245" width="120" height="60" as="geometry" />
        </mxCell>
        <mxCell id="gIRKYJ1xP_HY7FMiImQd-16" style="edgeStyle=orthogonalEdgeStyle;rounded=0;orthogonalLoop=1;jettySize=auto;html=1;entryX=1;entryY=0.5;entryDx=0;entryDy=0;dashed=1;strokeWidth=3;" parent="1" source="gIRKYJ1xP_HY7FMiImQd-13" target="Lk-VcoclUvMqdNgMOQ5e-7" edge="1">
          <mxGeometry relative="1" as="geometry" />
        </mxCell>
        <mxCell id="gIRKYJ1xP_HY7FMiImQd-13" value="Transporter" style="rounded=1;whiteSpace=wrap;html=1;fillColor=#A5C551;" parent="1" vertex="1">
          <mxGeometry x="150" y="1395" width="120" height="60" as="geometry" />
        </mxCell>
        <mxCell id="gIRKYJ1xP_HY7FMiImQd-19" style="edgeStyle=orthogonalEdgeStyle;rounded=0;orthogonalLoop=1;jettySize=auto;html=1;entryX=0;entryY=0.5;entryDx=0;entryDy=0;strokeWidth=3;exitX=1;exitY=0.5;exitDx=0;exitDy=0;strokeColor=#CD594E;" parent="1" source="Lk-VcoclUvMqdNgMOQ5e-104" target="gIRKYJ1xP_HY7FMiImQd-18" edge="1">
          <mxGeometry relative="1" as="geometry">
            <Array as="points">
              <mxPoint y="1575" />
              <mxPoint y="1575" />
            </Array>
          </mxGeometry>
        </mxCell>
        <mxCell id="gIRKYJ1xP_HY7FMiImQd-18" value="Serialization" style="rounded=1;whiteSpace=wrap;html=1;fillColor=#A5C551;" parent="1" vertex="1">
          <mxGeometry x="150" y="1545" width="120" height="60" as="geometry" />
        </mxCell>
        <mxCell id="gIRKYJ1xP_HY7FMiImQd-21" value="Implement" style="rounded=1;whiteSpace=wrap;html=1;fillColor=#4591D5;" parent="1" vertex="1">
          <mxGeometry x="580" y="105" width="120" height="60" as="geometry" />
        </mxCell>
        <mxCell id="gIRKYJ1xP_HY7FMiImQd-23" value="Server" style="rounded=1;whiteSpace=wrap;html=1;fillColor=#A5C551;" parent="1" vertex="1">
          <mxGeometry x="370" y="1395" width="120" height="60" as="geometry" />
        </mxCell>
        <mxCell id="gIRKYJ1xP_HY7FMiImQd-24" value="ChannelHandler" style="rounded=1;whiteSpace=wrap;html=1;fillColor=#A5C551;" parent="1" vertex="1">
          <mxGeometry x="580" y="1395" width="120" height="60" as="geometry" />
        </mxCell>
        <mxCell id="gIRKYJ1xP_HY7FMiImQd-25" value="ObjectInput" style="rounded=1;whiteSpace=wrap;html=1;fillColor=#A5C551;" parent="1" vertex="1">
          <mxGeometry x="580" y="1545" width="120" height="60" as="geometry" />
        </mxCell>
        <mxCell id="gIRKYJ1xP_HY7FMiImQd-32" style="edgeStyle=orthogonalEdgeStyle;rounded=0;orthogonalLoop=1;jettySize=auto;html=1;entryX=0;entryY=0.5;entryDx=0;entryDy=0;strokeWidth=3;exitX=1;exitY=0.5;exitDx=0;exitDy=0;strokeColor=#CD594E;" parent="1" source="gIRKYJ1xP_HY7FMiImQd-18" target="gIRKYJ1xP_HY7FMiImQd-25" edge="1">
          <mxGeometry relative="1" as="geometry">
            <mxPoint x="140" y="1790" as="sourcePoint" />
            <mxPoint x="450" y="1790" as="targetPoint" />
            <Array as="points">
              <mxPoint x="320" y="1575" />
              <mxPoint x="320" y="1575" />
            </Array>
          </mxGeometry>
        </mxCell>
        <mxCell id="gIRKYJ1xP_HY7FMiImQd-33" style="edgeStyle=orthogonalEdgeStyle;rounded=0;orthogonalLoop=1;jettySize=auto;html=1;entryX=0.5;entryY=1;entryDx=0;entryDy=0;strokeWidth=3;exitX=0.5;exitY=0;exitDx=0;exitDy=0;strokeColor=#CD594E;" parent="1" source="gIRKYJ1xP_HY7FMiImQd-25" target="gIRKYJ1xP_HY7FMiImQd-24" edge="1">
          <mxGeometry relative="1" as="geometry">
            <mxPoint x="650" y="1520" as="sourcePoint" />
            <mxPoint x="960" y="1520" as="targetPoint" />
            <Array as="points" />
          </mxGeometry>
        </mxCell>
        <mxCell id="gIRKYJ1xP_HY7FMiImQd-34" style="edgeStyle=orthogonalEdgeStyle;rounded=0;orthogonalLoop=1;jettySize=auto;html=1;dashed=1;strokeWidth=3;exitX=1;exitY=0.5;exitDx=0;exitDy=0;entryX=0;entryY=0.5;entryDx=0;entryDy=0;" parent="1" source="gIRKYJ1xP_HY7FMiImQd-13" target="gIRKYJ1xP_HY7FMiImQd-23" edge="1">
          <mxGeometry relative="1" as="geometry">
            <mxPoint x="290" y="1424.5" as="sourcePoint" />
            <mxPoint x="340" y="1425" as="targetPoint" />
          </mxGeometry>
        </mxCell>
        <mxCell id="gIRKYJ1xP_HY7FMiImQd-35" style="edgeStyle=orthogonalEdgeStyle;rounded=0;orthogonalLoop=1;jettySize=auto;html=1;dashed=1;strokeWidth=3;exitX=1;exitY=0.5;exitDx=0;exitDy=0;entryX=0;entryY=0.5;entryDx=0;entryDy=0;" parent="1" source="gIRKYJ1xP_HY7FMiImQd-23" target="gIRKYJ1xP_HY7FMiImQd-24" edge="1">
          <mxGeometry relative="1" as="geometry">
            <mxPoint x="500" y="1424.66" as="sourcePoint" />
            <mxPoint x="560" y="1425" as="targetPoint" />
          </mxGeometry>
        </mxCell>
        <mxCell id="gIRKYJ1xP_HY7FMiImQd-36" value="ExchangServer" style="rounded=1;whiteSpace=wrap;html=1;fillColor=#A5C551;" parent="1" vertex="1">
          <mxGeometry x="370" y="1245" width="120" height="60" as="geometry" />
        </mxCell>
        <mxCell id="gIRKYJ1xP_HY7FMiImQd-37" value="ExchangHandler" style="rounded=1;whiteSpace=wrap;html=1;fillColor=#A5C551;" parent="1" vertex="1">
          <mxGeometry x="580" y="1245" width="120" height="60" as="geometry" />
        </mxCell>
        <mxCell id="gIRKYJ1xP_HY7FMiImQd-42" style="edgeStyle=orthogonalEdgeStyle;rounded=0;orthogonalLoop=1;jettySize=auto;html=1;dashed=1;strokeWidth=3;exitX=1;exitY=0.5;exitDx=0;exitDy=0;entryX=0;entryY=0.5;entryDx=0;entryDy=0;" parent="1" source="gIRKYJ1xP_HY7FMiImQd-11" target="gIRKYJ1xP_HY7FMiImQd-36" edge="1">
          <mxGeometry relative="1" as="geometry">
            <mxPoint x="300" y="1274.66" as="sourcePoint" />
            <mxPoint x="340" y="1275" as="targetPoint" />
          </mxGeometry>
        </mxCell>
        <mxCell id="gIRKYJ1xP_HY7FMiImQd-44" style="edgeStyle=orthogonalEdgeStyle;rounded=0;orthogonalLoop=1;jettySize=auto;html=1;dashed=1;strokeWidth=3;exitX=1;exitY=0.5;exitDx=0;exitDy=0;entryX=0;entryY=0.5;entryDx=0;entryDy=0;" parent="1" source="gIRKYJ1xP_HY7FMiImQd-36" target="gIRKYJ1xP_HY7FMiImQd-37" edge="1">
          <mxGeometry relative="1" as="geometry">
            <mxPoint x="510" y="1274.66" as="sourcePoint" />
            <mxPoint x="540" y="1275" as="targetPoint" />
          </mxGeometry>
        </mxCell>
        <mxCell id="gIRKYJ1xP_HY7FMiImQd-46" style="edgeStyle=orthogonalEdgeStyle;rounded=0;orthogonalLoop=1;jettySize=auto;html=1;strokeWidth=3;exitX=0.5;exitY=0;exitDx=0;exitDy=0;strokeColor=#CD594E;entryX=0.5;entryY=1;entryDx=0;entryDy=0;" parent="1" source="gIRKYJ1xP_HY7FMiImQd-24" target="gIRKYJ1xP_HY7FMiImQd-37" edge="1">
          <mxGeometry relative="1" as="geometry">
            <mxPoint x="639.66" y="1380" as="sourcePoint" />
            <mxPoint x="640" y="1330" as="targetPoint" />
            <Array as="points" />
          </mxGeometry>
        </mxCell>
        <mxCell id="gIRKYJ1xP_HY7FMiImQd-48" style="edgeStyle=orthogonalEdgeStyle;rounded=0;orthogonalLoop=1;jettySize=auto;html=1;dashed=1;strokeWidth=3;exitX=0;exitY=0.5;exitDx=0;exitDy=0;entryX=1;entryY=0.5;entryDx=0;entryDy=0;" parent="1" source="gIRKYJ1xP_HY7FMiImQd-8" target="gIRKYJ1xP_HY7FMiImQd-5" edge="1">
          <mxGeometry relative="1" as="geometry">
            <mxPoint x="330" y="1055" as="sourcePoint" />
            <mxPoint x="430" y="1055" as="targetPoint" />
          </mxGeometry>
        </mxCell>
        <mxCell id="gIRKYJ1xP_HY7FMiImQd-49" value="Filter" style="rounded=1;whiteSpace=wrap;html=1;fillColor=#A5C551;" parent="1" vertex="1">
          <mxGeometry x="580" y="1100" width="120" height="60" as="geometry" />
        </mxCell>
        <mxCell id="gIRKYJ1xP_HY7FMiImQd-50" value="Exporter" style="rounded=1;whiteSpace=wrap;html=1;fillColor=#A5C551;" parent="1" vertex="1">
          <mxGeometry x="370" y="1100" width="120" height="60" as="geometry" />
        </mxCell>
        <mxCell id="gIRKYJ1xP_HY7FMiImQd-52" style="edgeStyle=orthogonalEdgeStyle;rounded=0;orthogonalLoop=1;jettySize=auto;html=1;dashed=1;strokeWidth=3;exitX=1;exitY=0.5;exitDx=0;exitDy=0;entryX=0;entryY=0.5;entryDx=0;entryDy=0;" parent="1" source="gIRKYJ1xP_HY7FMiImQd-50" target="gIRKYJ1xP_HY7FMiImQd-49" edge="1">
          <mxGeometry relative="1" as="geometry">
            <mxPoint x="460" y="1020" as="sourcePoint" />
            <mxPoint x="560" y="1020" as="targetPoint" />
          </mxGeometry>
        </mxCell>
        <mxCell id="gIRKYJ1xP_HY7FMiImQd-53" style="edgeStyle=orthogonalEdgeStyle;rounded=0;orthogonalLoop=1;jettySize=auto;html=1;dashed=1;strokeWidth=3;exitX=1;exitY=0.5;exitDx=0;exitDy=0;entryX=0;entryY=0.5;entryDx=0;entryDy=0;" parent="1" source="gIRKYJ1xP_HY7FMiImQd-8" target="gIRKYJ1xP_HY7FMiImQd-50" edge="1">
          <mxGeometry relative="1" as="geometry">
            <mxPoint x="360" y="1024.66" as="sourcePoint" />
            <mxPoint x="350" y="1130" as="targetPoint" />
          </mxGeometry>
        </mxCell>
        <mxCell id="gIRKYJ1xP_HY7FMiImQd-54" style="edgeStyle=orthogonalEdgeStyle;rounded=0;orthogonalLoop=1;jettySize=auto;html=1;dashed=1;strokeWidth=3;exitX=0;exitY=0.5;exitDx=0;exitDy=0;entryX=1;entryY=0.5;entryDx=0;entryDy=0;" parent="1" source="gIRKYJ1xP_HY7FMiImQd-1" target="Lk-VcoclUvMqdNgMOQ5e-2" edge="1">
          <mxGeometry relative="1" as="geometry">
            <mxPoint x="149.99999999999997" as="sourcePoint" />
            <mxPoint x="249.99999999999997" as="targetPoint" />
          </mxGeometry>
        </mxCell>
        <mxCell id="gIRKYJ1xP_HY7FMiImQd-55" value="Proxy" style="rounded=1;whiteSpace=wrap;html=1;fillColor=#4591D5;" parent="1" vertex="1">
          <mxGeometry x="580" y="340" width="120" height="60" as="geometry" />
        </mxCell>
        <mxCell id="gIRKYJ1xP_HY7FMiImQd-56" style="edgeStyle=orthogonalEdgeStyle;rounded=0;orthogonalLoop=1;jettySize=auto;html=1;entryX=0.5;entryY=1;entryDx=0;entryDy=0;strokeWidth=3;exitX=0.5;exitY=0;exitDx=0;exitDy=0;strokeColor=#CD594E;" parent="1" source="gIRKYJ1xP_HY7FMiImQd-49" target="gIRKYJ1xP_HY7FMiImQd-55" edge="1">
          <mxGeometry relative="1" as="geometry">
            <mxPoint x="639.41" y="635" as="sourcePoint" />
            <mxPoint x="639.41" y="545" as="targetPoint" />
            <Array as="points" />
          </mxGeometry>
        </mxCell>
        <mxCell id="gIRKYJ1xP_HY7FMiImQd-63" style="edgeStyle=orthogonalEdgeStyle;rounded=0;orthogonalLoop=1;jettySize=auto;html=1;entryX=0.5;entryY=1;entryDx=0;entryDy=0;strokeWidth=3;exitX=0.5;exitY=0;exitDx=0;exitDy=0;strokeColor=#CD594E;" parent="1" source="gIRKYJ1xP_HY7FMiImQd-55" target="gIRKYJ1xP_HY7FMiImQd-21" edge="1">
          <mxGeometry relative="1" as="geometry">
            <mxPoint x="750" y="30" as="sourcePoint" />
            <mxPoint x="750" y="-60" as="targetPoint" />
            <Array as="points" />
          </mxGeometry>
        </mxCell>
        <mxCell id="gIRKYJ1xP_HY7FMiImQd-64" value="Actor" style="shape=umlActor;verticalLabelPosition=bottom;verticalAlign=top;html=1;outlineConnect=0;points=[[0,0.3333333333333333,0,0,0],[0,1,0,0,0],[0.25,0.1,0,0,0],[0.5,0,0,0,0],[0.5,0.5,0,0,0],[0.5,1,0,0,28],[0.75,0.1,0,0,0],[1,0.3333333333333333,0,0,0],[1,1,0,0,0]];fontStyle=1;fontSize=15;" parent="1" vertex="1">
          <mxGeometry x="-235" y="-140" width="30" height="60" as="geometry" />
        </mxCell>
        <mxCell id="gIRKYJ1xP_HY7FMiImQd-65" style="edgeStyle=orthogonalEdgeStyle;rounded=0;orthogonalLoop=1;jettySize=auto;html=1;dashed=1;strokeWidth=3;exitX=0;exitY=0.5;exitDx=0;exitDy=0;entryX=0.75;entryY=0;entryDx=0;entryDy=0;" parent="1" source="Lk-VcoclUvMqdNgMOQ5e-86" target="Lk-VcoclUvMqdNgMOQ5e-2" edge="1">
          <mxGeometry relative="1" as="geometry">
            <mxPoint x="79.99999999999994" y="20" as="sourcePoint" />
            <mxPoint x="179.99999999999994" y="20" as="targetPoint" />
          </mxGeometry>
        </mxCell>
        <mxCell id="gIRKYJ1xP_HY7FMiImQd-67" style="edgeStyle=orthogonalEdgeStyle;rounded=0;orthogonalLoop=1;jettySize=auto;html=1;dashed=1;strokeWidth=3;exitX=0;exitY=0.5;exitDx=0;exitDy=0;entryX=0.75;entryY=0;entryDx=0;entryDy=0;" parent="1" source="Lk-VcoclUvMqdNgMOQ5e-108" target="Lk-VcoclUvMqdNgMOQ5e-3" edge="1">
          <mxGeometry relative="1" as="geometry">
            <mxPoint x="99.99999999999994" y="90" as="sourcePoint" />
            <mxPoint x="199.99999999999994" y="90" as="targetPoint" />
          </mxGeometry>
        </mxCell>
        <mxCell id="gIRKYJ1xP_HY7FMiImQd-68" style="edgeStyle=orthogonalEdgeStyle;rounded=0;orthogonalLoop=1;jettySize=auto;html=1;dashed=1;strokeWidth=3;exitX=0.5;exitY=1;exitDx=0;exitDy=0;entryX=0;entryY=0.25;entryDx=0;entryDy=0;" parent="1" source="gIRKYJ1xP_HY7FMiImQd-69" target="gIRKYJ1xP_HY7FMiImQd-55" edge="1">
          <mxGeometry relative="1" as="geometry">
            <mxPoint x="429.99999999999994" y="30" as="sourcePoint" />
            <mxPoint x="530" y="30" as="targetPoint" />
          </mxGeometry>
        </mxCell>
        <mxCell id="gIRKYJ1xP_HY7FMiImQd-69" value="Invoker" style="rounded=1;whiteSpace=wrap;html=1;fillColor=#A5C551;" parent="1" vertex="1">
          <mxGeometry x="360" y="240" width="120" height="60" as="geometry" />
        </mxCell>
        <mxCell id="gIRKYJ1xP_HY7FMiImQd-72" style="edgeStyle=orthogonalEdgeStyle;rounded=0;orthogonalLoop=1;jettySize=auto;html=1;dashed=1;strokeWidth=3;exitX=1;exitY=0.5;exitDx=0;exitDy=0;entryX=0;entryY=0.5;entryDx=0;entryDy=0;" parent="1" source="gIRKYJ1xP_HY7FMiImQd-1" target="gIRKYJ1xP_HY7FMiImQd-55" edge="1">
          <mxGeometry relative="1" as="geometry">
            <mxPoint x="950" y="290" as="sourcePoint" />
            <mxPoint x="490" y="370" as="targetPoint" />
          </mxGeometry>
        </mxCell>
        <mxCell id="gIRKYJ1xP_HY7FMiImQd-73" style="edgeStyle=orthogonalEdgeStyle;rounded=0;orthogonalLoop=1;jettySize=auto;html=1;dashed=1;strokeWidth=3;exitX=1;exitY=0.5;exitDx=0;exitDy=0;entryX=0;entryY=0.5;entryDx=0;entryDy=0;" parent="1" source="Lk-VcoclUvMqdNgMOQ5e-86" target="gIRKYJ1xP_HY7FMiImQd-21" edge="1">
          <mxGeometry relative="1" as="geometry">
            <mxPoint x="50" y="-50" as="sourcePoint" />
            <mxPoint x="210" y="5" as="targetPoint" />
          </mxGeometry>
        </mxCell>
        <mxCell id="gIRKYJ1xP_HY7FMiImQd-74" value="ServiceConfig" style="rounded=0;whiteSpace=wrap;html=1;verticalAlign=middle;align=center;fontStyle=1;fontSize=15;horizontal=0;fillColor=#F2FCDA;strokeColor=#6C8EBF;" parent="1" vertex="1">
          <mxGeometry x="780" y="60" width="160" height="1590" as="geometry" />
        </mxCell>
      </root>
    </mxGraphModel>
  </diagram>
</mxfile>
